<svg xmlns="http://www.w3.org/2000/svg" width="200" height="200" viewBox="0 0 200 200"><g transform="translate(-1513 -2214)"><rect width="200" height="200" transform="translate(1513 2214)" fill="#fff" opacity="0"/><g transform="translate(1552 2294)"><path d="M7.027,24.861,0,3.335H3l3.353,10.6c.926,2.905,1.724,5.525,2.3,8.048h.063c.609-2.49,1.5-5.207,2.461-8.017l3.64-10.635h2.97l-7.7,21.526Z" transform="translate(0 -0.782)" fill="#464b85"/><path d="M30.468,5.092a1.74,1.74,0,0,1-3.48,0,1.711,1.711,0,0,1,1.755-1.757A1.668,1.668,0,0,1,30.468,5.092Z" transform="translate(-6.326 -0.782)" fill="#866393"/><rect width="2.81" height="15.458" transform="translate(21.013 8.621)" fill="#866393"/><path d="M36.065,15.335c0-1.6-.033-2.905-.127-4.183h2.473l.158,2.556h.064A5.639,5.639,0,0,1,43.708,10.8c2.126,0,5.426,1.279,5.426,6.579V26.61H46.342V17.7c0-2.491-.922-4.568-3.553-4.568a3.972,3.972,0,0,0-3.745,2.875,4.064,4.064,0,0,0-.191,1.309v9.3h-2.79V15.335Z" transform="translate(-8.424 -2.532)" fill="#3b4178"/><path d="M70.26,26.047a10.362,10.362,0,0,1-4.44.894c-4.662,0-7.7-3.164-7.7-7.892,0-4.757,3.258-8.208,8.3-8.208a9.4,9.4,0,0,1,3.9.8l-.638,2.171a6.532,6.532,0,0,0-3.259-.734c-3.545,0-5.462,2.62-5.462,5.845,0,3.578,2.3,5.78,5.365,5.78a7.97,7.97,0,0,0,3.45-.766Z" transform="translate(-13.624 -2.541)" fill="#377c4c"/><path d="M92.036,22.5c0,1.6.031,3,.126,4.216H89.671l-.158-2.523h-.066a5.815,5.815,0,0,1-5.109,2.876c-2.428,0-5.333-1.342-5.333-6.773V11.26h2.81v8.561c0,2.938.894,4.917,3.449,4.917a3.96,3.96,0,0,0,3.963-3.993V11.26h2.81Z" transform="translate(-18.519 -2.639)" fill="#dfa726"/><path d="M100.926,6.578h2.809V25.621h-2.809Z" transform="translate(-23.658 -1.542)" fill="#f15a22"/><path d="M122.522,22.5c0,1.6.031,3,.127,4.216h-2.475l-.158-2.523h-.064a5.768,5.768,0,0,1-5.073,2.876c-2.414,0-5.3-1.342-5.3-6.773V11.26h2.791v8.561c0,2.938.888,4.917,3.425,4.917a4.035,4.035,0,0,0,3.679-2.556,4.117,4.117,0,0,0,.256-1.437V11.26h2.791V22.5Z" transform="translate(-25.686 -2.639)" fill="#cc3133"/><path d="M131.461,15.335c0-1.6-.033-2.905-.127-4.183h2.431l.126,2.49h.092a5.259,5.259,0,0,1,4.8-2.842,4.521,4.521,0,0,1,4.322,3.1h.061a6.354,6.354,0,0,1,1.7-2.014,5.167,5.167,0,0,1,3.376-1.086c2.019,0,5.015,1.342,5.015,6.707v9.1h-2.712V17.86c0-2.971-1.071-4.759-3.31-4.759a3.6,3.6,0,0,0-3.282,2.555,4.672,4.672,0,0,0-.221,1.4V26.61H141.02V17.347c0-2.458-1.072-4.245-3.186-4.245a3.806,3.806,0,0,0-3.441,2.81,3.966,3.966,0,0,0-.22,1.373v9.326h-2.713Z" transform="translate(-30.785 -2.532)" fill="#464b85"/><rect width="94.834" height="2.52" transform="translate(27.641)" fill="#3c5e8a"/><g transform="translate(0 31.761)"><path d="M2.438,48a3.346,3.346,0,0,1-1.305-.266,3.516,3.516,0,0,1-1.093-.7L0,47l.358-.639.065.064a3.018,3.018,0,0,0,.956.631,2.752,2.752,0,0,0,1.067.227A1.918,1.918,0,0,0,3.547,47a.838.838,0,0,0,.391-.728.891.891,0,0,0-.2-.6,1.369,1.369,0,0,0-.5-.367c-.207-.088-.5-.193-.874-.311a9.376,9.376,0,0,1-1.03-.375,1.794,1.794,0,0,1-.681-.541,1.49,1.49,0,0,1-.284-.944,1.423,1.423,0,0,1,.283-.876,1.78,1.78,0,0,1,.783-.576,3.123,3.123,0,0,1,1.148-.2,3.689,3.689,0,0,1,1.047.155,3.637,3.637,0,0,1,.928.412l.054.034-.332.654L4.212,42.7a3.179,3.179,0,0,0-.825-.364,3.092,3.092,0,0,0-.841-.129,1.812,1.812,0,0,0-1,.245.721.721,0,0,0-.358.636.847.847,0,0,0,.2.583,1.47,1.47,0,0,0,.5.364,8.218,8.218,0,0,0,.854.305,7.664,7.664,0,0,1,1.037.376,1.878,1.878,0,0,1,.689.555,1.686,1.686,0,0,1-.008,1.9,1.886,1.886,0,0,1-.824.619A3.129,3.129,0,0,1,2.438,48Z" transform="translate(0 -41.486)"/><path d="M11.612,48.47a2.5,2.5,0,0,1-1.246-.309,2.228,2.228,0,0,1-.857-.866,2.729,2.729,0,0,1,0-2.521,2.235,2.235,0,0,1,.857-.87,2.456,2.456,0,0,1,1.227-.309,2.115,2.115,0,0,1,1.723.72,2.76,2.76,0,0,1,.545,1.917l0,.067H9.95a1.719,1.719,0,0,0,.527,1.095,1.651,1.651,0,0,0,1.171.443,2.086,2.086,0,0,0,.808-.155,1.846,1.846,0,0,0,.64-.441l.049-.052.439.439-.046.049a2.433,2.433,0,0,1-.844.587A2.808,2.808,0,0,1,11.612,48.47Zm1.566-2.777a1.628,1.628,0,0,0-.462-1.051,1.531,1.531,0,0,0-1.113-.416,1.616,1.616,0,0,0-1.136.422,1.671,1.671,0,0,0-.516,1.045Z" transform="translate(-2.157 -41.98)"/><rect width="0.741" height="6.41" transform="translate(14.038 0.061)"/><rect width="0.74" height="6.41" transform="translate(17.11 0.061)"/></g><g transform="translate(24.207 31.823)"><path d="M37.307,47.976l-.745-1.669H33.172l-.736,1.669h-.818l2.889-6.41h.737l2.889,6.41Zm-1.049-2.363-1.4-3.149-1.381,3.149Z" transform="translate(-31.619 -41.566)"/><path d="M46.823,48.451V45.637a1.367,1.367,0,0,0-.348-.993,1.307,1.307,0,0,0-.973-.354,1.522,1.522,0,0,0-1.112.427,1.784,1.784,0,0,0-.478,1.141v2.594h-.74v-4.84h.74v.88a1.774,1.774,0,0,1,.608-.6,2.362,2.362,0,0,1,1.178-.3,1.845,1.845,0,0,1,1.374.51,1.9,1.9,0,0,1,.5,1.39v2.958h-.75Z" transform="translate(-34.327 -42.041)"/><path d="M52.475,50.224a1.621,1.621,0,0,1-1.011-.337l-.049-.038.338-.585.062.043a1.107,1.107,0,0,0,.634.2.734.734,0,0,0,.476-.172,1.33,1.33,0,0,0,.366-.521l.186-.458L51.5,43.617h.789l1.566,3.914,1.5-3.914h.771l-2.21,5.469a1.975,1.975,0,0,1-.591.844A1.352,1.352,0,0,1,52.475,50.224Z" transform="translate(-36.259 -42.047)"/><path d="M65.937,48.457,64.551,44.62l-1.386,3.837H62.44l-1.82-4.84h.8l1.395,3.957,1.377-3.957h.736l1.386,3.957,1.386-3.957h.779l-1.811,4.84Z" transform="translate(-38.417 -42.047)"/><path d="M77.583,47.976V45.162a1.373,1.373,0,0,0-.348-.993,1.308,1.308,0,0,0-.973-.354,1.509,1.509,0,0,0-1.172.491,1.908,1.908,0,0,0-.426,1.295v2.376h-.741v-6.41h.741v2.461a1.964,1.964,0,0,1,1.8-.91,1.845,1.845,0,0,1,1.373.51,1.911,1.911,0,0,1,.5,1.39v2.958h-.75Z" transform="translate(-41.535 -41.566)"/><path d="M85.139,48.47a2.5,2.5,0,0,1-1.247-.309,2.219,2.219,0,0,1-.855-.866,2.726,2.726,0,0,1,0-2.521,2.244,2.244,0,0,1,.856-.87,2.463,2.463,0,0,1,1.228-.309,2.114,2.114,0,0,1,1.723.72,2.756,2.756,0,0,1,.544,1.917l0,.067h-3.91A1.715,1.715,0,0,0,84,47.394a1.649,1.649,0,0,0,1.171.443,2.086,2.086,0,0,0,.808-.155,1.836,1.836,0,0,0,.639-.441l.049-.052.439.439-.046.049a2.426,2.426,0,0,1-.844.587A2.788,2.788,0,0,1,85.139,48.47ZM86.7,45.693a1.64,1.64,0,0,0-.462-1.051,1.532,1.532,0,0,0-1.113-.416,1.618,1.618,0,0,0-1.137.422,1.675,1.675,0,0,0-.516,1.045Z" transform="translate(-43.599 -42.041)"/><path d="M91.862,48.451v-4.84H92.6v.875a1.788,1.788,0,0,1,.56-.59,2.011,2.011,0,0,1,1.083-.3l.07,0V44.3l-.1,0a1.54,1.54,0,0,0-1.12.416,1.772,1.772,0,0,0-.5,1.163v2.575h-.741Z" transform="translate(-45.74 -42.041)"/><path d="M99.884,48.47a2.5,2.5,0,0,1-1.245-.309,2.216,2.216,0,0,1-.856-.866,2.717,2.717,0,0,1,0-2.521,2.233,2.233,0,0,1,.856-.87,2.459,2.459,0,0,1,1.228-.309,2.113,2.113,0,0,1,1.722.72,2.749,2.749,0,0,1,.545,1.917l0,.067H98.221a1.719,1.719,0,0,0,.527,1.095,1.651,1.651,0,0,0,1.172.443,2.085,2.085,0,0,0,.807-.155,1.846,1.846,0,0,0,.64-.441l.049-.052.439.439-.046.049a2.426,2.426,0,0,1-.844.587A2.789,2.789,0,0,1,99.884,48.47Zm1.566-2.777a1.636,1.636,0,0,0-.462-1.051,1.53,1.53,0,0,0-1.112-.416,1.615,1.615,0,0,0-1.137.422,1.679,1.679,0,0,0-.516,1.045Z" transform="translate(-47.056 -42.041)"/><path d="M105.556,50.7l.363-1.05a.4.4,0,0,1-.14-.143.461.461,0,0,1-.068-.241.466.466,0,0,1,.132-.335.463.463,0,0,1,.656-.006.465.465,0,0,1,.133.341.936.936,0,0,1-.106.37L106.06,50.7h-.5Z" transform="translate(-48.95 -43.26)"/></g><path d="M115.263,47.976v-6.41h4.068v.7h-3.309v2.273h2.951v.7h-2.951v2.745Z" transform="translate(-27.018 -9.743)"/><path d="M124.677,48.479a1.916,1.916,0,0,1-.87-.191,1.41,1.41,0,0,1-.8-1.295,1.2,1.2,0,0,1,.5-1.017,2.206,2.206,0,0,1,1.337-.364h1.51v-.289a1.047,1.047,0,0,0-.31-.81,1.321,1.321,0,0,0-.92-.287,2.483,2.483,0,0,0-1.475.552l-.059.045-.348-.532.055-.039a4.1,4.1,0,0,1,.923-.5,2.928,2.928,0,0,1,1.011-.162,1.961,1.961,0,0,1,1.365.444,1.616,1.616,0,0,1,.5,1.23l.009,3.183h-.731l-.008-.654a1.789,1.789,0,0,1-.63.473A2.589,2.589,0,0,1,124.677,48.479Zm.243-2.262a1.708,1.708,0,0,0-.9.2.617.617,0,0,0-.291.56.759.759,0,0,0,.285.622,1.185,1.185,0,0,0,.776.24,1.805,1.805,0,0,0,1.024-.279,1.363,1.363,0,0,0,.557-.773v-.565Z" transform="translate(-28.834 -10.219)"/><path d="M133,48.467a2.95,2.95,0,0,1-1.01-.175,2.252,2.252,0,0,1-.824-.5l-.039-.037.312-.555.065.06a2.32,2.32,0,0,0,1.523.583,1.321,1.321,0,0,0,.737-.186.574.574,0,0,0,.27-.516.533.533,0,0,0-.134-.378.993.993,0,0,0-.357-.243c-.149-.061-.36-.134-.626-.217a6.45,6.45,0,0,1-.779-.281,1.44,1.44,0,0,1-.528-.41,1.112,1.112,0,0,1-.222-.713,1.124,1.124,0,0,1,.494-.991,2.077,2.077,0,0,1,1.192-.326,2.9,2.9,0,0,1,.8.11,2.632,2.632,0,0,1,.69.3l.054.034-.3.582-.066-.041a2.181,2.181,0,0,0-.583-.256,2.311,2.311,0,0,0-.635-.093,1.262,1.262,0,0,0-.686.165.512.512,0,0,0-.24.466.466.466,0,0,0,.128.345,1.036,1.036,0,0,0,.345.231,5.412,5.412,0,0,0,.607.208,6.347,6.347,0,0,1,.8.286,1.509,1.509,0,0,1,.546.423,1.14,1.14,0,0,1,.231.739,1.186,1.186,0,0,1-.514,1.032A2.162,2.162,0,0,1,133,48.467Z" transform="translate(-30.737 -10.216)"/><path d="M140.592,48.155a1.183,1.183,0,0,1-.9-.354,1.468,1.468,0,0,1-.334-1.044V44.03h-.672l-.012-.606h.684V42.212h.74v1.21l1.525-.01v.617H140.1v2.63c0,.538.189.8.577.8a1.485,1.485,0,0,0,.744-.241l.071-.042.23.586-.046.031a1.991,1.991,0,0,1-1.078.364h0Z" transform="translate(-32.505 -9.895)"/><path d="M147.293,48.47a2.5,2.5,0,0,1-1.245-.309,2.233,2.233,0,0,1-.857-.866,2.729,2.729,0,0,1,0-2.521,2.245,2.245,0,0,1,.857-.87,2.458,2.458,0,0,1,1.227-.309,2.112,2.112,0,0,1,1.723.72,2.756,2.756,0,0,1,.545,1.917l0,.067h-3.91a1.723,1.723,0,0,0,.527,1.095,1.655,1.655,0,0,0,1.172.443,2.086,2.086,0,0,0,.808-.155,1.832,1.832,0,0,0,.64-.441l.049-.052.439.439-.047.049a2.426,2.426,0,0,1-.844.587A2.8,2.8,0,0,1,147.293,48.47Zm1.566-2.777a1.632,1.632,0,0,0-.462-1.051,1.53,1.53,0,0,0-1.112-.416,1.617,1.617,0,0,0-1.137.422,1.679,1.679,0,0,0-.516,1.045Z" transform="translate(-33.961 -10.219)"/><path d="M154.018,48.451v-4.84h.741v.875a1.786,1.786,0,0,1,.56-.59,2.013,2.013,0,0,1,1.083-.3l.071,0V44.3l-.1,0a1.541,1.541,0,0,0-1.121.416,1.771,1.771,0,0,0-.495,1.163v2.575h-.741Z" transform="translate(-36.103 -10.218)"/><circle cx="0.495" cy="0.495" r="0.495" transform="translate(121.506 37.245)"/></g></g></svg>