<svg width="20" height="12" viewBox="0 0 20 12" fill="none" xmlns="http://www.w3.org/2000/svg">
<path d="M14.184 0.927125C14.3371 1.08019 14.429 1.28383 14.4426 1.49985C14.4562 1.71588 14.3905 1.92943 14.2578 2.10046L14.184 2.18401L5.29512 11.0729C5.14206 11.2259 4.93841 11.3179 4.72239 11.3315C4.50637 11.3451 4.29281 11.2793 4.12178 11.1467L4.03823 11.0729L0.482673 7.51735C0.323252 7.35738 0.230696 7.14274 0.223803 6.91701C0.21691 6.69127 0.296197 6.47138 0.44556 6.30199C0.594924 6.1326 0.803163 6.02641 1.02798 6.00499C1.2528 5.98358 1.47735 6.04854 1.65601 6.18668L1.73956 6.26046L4.66667 9.18668L12.9271 0.927125C13.0938 0.760484 13.3199 0.66687 13.5556 0.66687C13.7913 0.66687 14.0173 0.760484 14.184 0.927125ZM19.5173 0.927125C19.6704 1.08019 19.7623 1.28383 19.7759 1.49985C19.7895 1.71588 19.7238 1.92943 19.5911 2.10046L19.5173 2.18401L10.6285 11.0729C10.4685 11.2323 10.2538 11.3249 10.0281 11.3318C9.80238 11.3387 9.58248 11.2594 9.41309 11.11C9.2437 10.9607 9.13751 10.7524 9.1161 10.5276C9.09468 10.3028 9.15964 10.0782 9.29778 9.89957L9.37156 9.81601L18.2604 0.927125C18.4271 0.760484 18.6532 0.66687 18.8889 0.66687C19.1246 0.66687 19.3506 0.760484 19.5173 0.927125Z" fill="#319D63"/>
</svg>
