<svg width="18" height="20" viewBox="0 0 18 20" fill="none" xmlns="http://www.w3.org/2000/svg">
<path d="M17.8844 14.6026C17.7386 17.3866 13.7564 19.3333 8.99997 19.3333C4.15375 19.3333 0.111084 17.312 0.111084 14.4444V5.55552L0.115529 5.39729C0.261306 2.61329 4.24353 0.666626 8.99997 0.666626C13.8462 0.666626 17.8889 2.68796 17.8889 5.55552V14.4444L17.8844 14.6026ZM16.112 8.54663C14.48 9.72885 11.8818 10.4444 8.99997 10.4444C6.1182 10.4444 3.52086 9.72974 1.88886 8.54752V9.99996C1.88886 11.5511 5.00886 13.1111 8.99997 13.1111C12.9911 13.1111 16.1111 11.5511 16.1111 9.99996L16.112 8.54663ZM8.99997 2.4444C5.00886 2.4444 1.88886 4.0044 1.88886 5.55552C1.88886 7.10663 5.00886 8.66663 8.99997 8.66663C12.9911 8.66663 16.1111 7.10663 16.1111 5.55552C16.1111 4.0044 12.9911 2.4444 8.99997 2.4444ZM16.112 12.9911C14.48 14.1733 11.8818 14.8888 8.99997 14.8888C6.1182 14.8888 3.52086 14.1742 1.88886 12.992V14.4444L1.89331 14.5475C2.02842 16.064 5.09864 17.5555 8.99997 17.5555C12.9911 17.5555 16.1111 15.9955 16.1111 14.4444L16.112 12.9911Z" fill="#319D63"/>
</svg>
