<svg width="20" height="20" viewBox="0 0 20 20" fill="none" xmlns="http://www.w3.org/2000/svg">
<path d="M13.1911 0.222229C15.1315 0.222229 16.0649 0.402673 17.0346 0.920896C17.9052 1.38259 18.6174 2.09474 19.0791 2.96534C19.5973 3.93512 19.7778 4.86756 19.7778 6.8089V13.1911C19.7778 15.1316 19.5973 16.0649 19.0791 17.0347C18.6174 17.9053 17.9052 18.6174 17.0346 19.0791C16.0649 19.5973 15.1324 19.7778 13.1911 19.7778H6.80887C4.86842 19.7778 3.93509 19.5973 2.96531 19.0791C2.09471 18.6174 1.38256 17.9053 0.920865 17.0347C0.402643 16.0649 0.222198 15.1325 0.222198 13.1911V6.8089C0.222198 4.86845 0.402643 3.93512 0.920865 2.96534C1.38256 2.09474 2.09471 1.38259 2.96531 0.920896C3.93509 0.402673 4.86753 0.222229 6.80887 0.222229H13.1911ZM13.1911 2.00001H6.80887C5.13687 2.00001 4.47998 2.12623 3.80442 2.4889C3.24309 2.78447 2.78444 3.24312 2.48887 3.80445C2.1262 4.48001 1.99998 5.1369 1.99998 6.8089V13.1911C1.99998 14.8631 2.1262 15.52 2.48887 16.1956C2.78444 16.7569 3.24309 17.2155 3.80442 17.5111C4.47998 17.8738 5.13687 18 6.80887 18H13.1911C14.8631 18 15.52 17.8738 16.1955 17.5111C16.7565 17.2151 17.2151 16.7566 17.5111 16.1956C17.8738 15.52 18 14.8631 18 13.1911V6.8089C18 5.1369 17.8738 4.48001 17.5111 3.80445C17.2151 3.24346 16.7565 2.78492 16.1955 2.4889C15.52 2.12623 14.8631 2.00001 13.1911 2.00001ZM9.11109 13.1111C9.34684 13.1111 9.57293 13.2048 9.73963 13.3715C9.90633 13.5382 9.99998 13.7643 9.99998 14C9.99998 14.2358 9.90633 14.4618 9.73963 14.6285C9.57293 14.7952 9.34684 14.8889 9.11109 14.8889H5.55553C5.31978 14.8889 5.09369 14.7952 4.92699 14.6285C4.76029 14.4618 4.66664 14.2358 4.66664 14C4.66664 13.7643 4.76029 13.5382 4.92699 13.3715C5.09369 13.2048 5.31978 13.1111 5.55553 13.1111H9.11109ZM5.55553 9.11112H14.4444C14.671 9.11137 14.8889 9.19812 15.0536 9.35365C15.2184 9.50918 15.3175 9.72174 15.3308 9.94791C15.3441 10.1741 15.2705 10.3968 15.1251 10.5705C14.9797 10.7443 14.7734 10.8559 14.5484 10.8827L14.4444 10.8889H5.55553C5.32897 10.8886 5.11106 10.8019 4.94632 10.6464C4.78157 10.4908 4.68243 10.2783 4.66916 10.0521C4.65588 9.82593 4.72946 9.60323 4.87488 9.42949C5.02029 9.25575 5.22656 9.1441 5.45153 9.11734L5.55553 9.11112H14.4444H5.55553ZM14.4444 5.11112C14.671 5.11137 14.8889 5.19812 15.0536 5.35365C15.2184 5.50918 15.3175 5.72174 15.3308 5.94791C15.3441 6.17408 15.2705 6.39679 15.1251 6.57052C14.9797 6.74426 14.7734 6.85592 14.5484 6.88267L14.4444 6.8889H5.55553C5.32897 6.88864 5.11106 6.80189 4.94632 6.64636C4.78157 6.49084 4.68243 6.27827 4.66916 6.0521C4.65588 5.82593 4.72946 5.60323 4.87488 5.42949C5.02029 5.25575 5.22656 5.1441 5.45153 5.11734L5.55553 5.11112H14.4444Z" fill="#319D63"/>
</svg>
