<svg width="74" height="63" viewBox="0 0 74 63" fill="none" xmlns="http://www.w3.org/2000/svg">
<path d="M72.3428 7.76303H67.9017V1.66768C67.9017 1.22538 67.7271 0.8012 67.4163 0.48845C67.1055 0.175701 66.684 0 66.2445 0H43.3096C42.0863 0.0110601 40.883 0.313825 39.7984 0.883458C38.7139 1.45309 37.779 2.27336 37.0704 3.27698C36.3628 2.27238 35.4281 1.45138 34.3434 0.881639C33.2586 0.311893 32.0548 0.00971288 30.8313 0H7.89632C7.45681 0 7.03531 0.175701 6.72453 0.48845C6.41376 0.8012 6.23917 1.22538 6.23917 1.66768V7.76303H1.65715C1.21765 7.76303 0.796143 7.93873 0.485368 8.25148C0.174592 8.56423 0 8.98841 0 9.43071V56.259C0 56.7013 0.174592 57.1255 0.485368 57.4383C0.796143 57.751 1.21765 57.9267 1.65715 57.9267H28.8261C29.5746 59.4856 30.755 60.7935 32.225 61.693C33.695 62.5925 35.3921 63.0451 37.1119 62.9964C38.8145 63.0076 40.4861 62.5386 41.9374 61.6425C43.3887 60.7465 44.5615 59.4592 45.323 57.9267H72.3428C72.7824 57.9267 73.2039 57.751 73.5146 57.4383C73.8254 57.1255 74 56.7013 74 56.259V9.43071C74 8.98841 73.8254 8.56423 73.5146 8.25148C73.2039 7.93873 72.7824 7.76303 72.3428 7.76303ZM30.8313 3.33535C32.1062 3.4023 33.3032 3.97359 34.1615 4.92476C35.0197 5.87592 35.4697 7.12988 35.4133 8.41342V49.5383C34.0232 48.9167 32.5181 48.5984 30.997 48.6044H9.55347V3.33535H30.8313ZM43.3096 3.33535H64.5874V48.6044H43.1439C41.6228 48.5984 40.1176 48.9167 38.7276 49.5383V8.41342C38.6712 7.12988 39.1211 5.87592 39.9794 4.92476C40.8376 3.97359 42.0346 3.4023 43.3096 3.33535ZM70.6526 54.5914H44.1382C43.7962 54.6026 43.4661 54.72 43.1932 54.9275C42.9202 55.135 42.7178 55.4225 42.6136 55.7504C42.2026 56.8983 41.4498 57.8906 40.4578 58.5919C39.4657 59.2933 38.2828 59.6696 37.0704 59.6694C35.8584 59.7297 34.6604 59.3856 33.6626 58.6905C32.6648 57.9954 31.9229 56.9883 31.5521 55.8254C31.4559 55.473 31.2472 55.1622 30.9583 54.9407C30.6694 54.7192 30.3162 54.5994 29.953 54.5997H3.3143V11.0984H6.23917V50.2888C6.23917 50.7311 6.41376 51.1552 6.72453 51.468C7.03531 51.7807 7.45681 51.9564 7.89632 51.9564H30.997C32.7927 51.9193 34.535 52.5723 35.869 53.7825L35.985 53.8826L36.0679 53.9576C36.1844 54.0472 36.3127 54.1201 36.449 54.1744L36.623 54.2328H36.739C36.8436 54.2456 36.9493 54.2456 37.0539 54.2328C37.1612 54.2451 37.2696 54.2451 37.377 54.2328H37.493C37.5496 54.2211 37.6051 54.2044 37.6587 54.1828C37.7968 54.1321 37.9255 54.0589 38.0399 53.966L38.1227 53.8909C38.1227 53.8909 38.2139 53.8242 38.247 53.7825C39.5837 52.5831 41.3201 51.9341 43.1107 51.9648H66.2445C66.684 51.9648 67.1055 51.7891 67.4163 51.4763C67.7271 51.1636 67.9017 50.7394 67.9017 50.2971V11.1067H70.6857L70.6526 54.5914Z" fill="#319D63"/>
</svg>
