<svg width="65" height="76" viewBox="0 0 65 76" fill="none" xmlns="http://www.w3.org/2000/svg">
<path d="M24.9854 0C24.2369 0.014822 23.524 0.319618 23 0.849173C22.4759 1.37873 22.1823 2.09071 22.1823 2.83224C22.1823 3.57377 22.4759 4.28575 23 4.8153C23.524 5.34486 24.2369 5.64985 24.9854 5.66467H29.6794V11.7478C24.0669 12.2317 18.6777 14.1522 14.0406 17.3212L10.9817 14.3288C10.3018 13.6622 9.39088 13.2773 8.43454 13.2528C7.4782 13.2283 6.54841 13.566 5.83461 14.1969C5.01668 14.9214 4.22914 15.6789 3.474 16.4674C2.79702 17.1738 2.42646 18.1148 2.44178 19.0887C2.45711 20.0625 2.8571 20.9915 3.55597 21.6766L6.47171 24.5342C2.85975 29.3186 0.663306 35.0041 0.128177 40.9546C-0.406952 46.905 0.740351 52.8856 3.44169 58.2269C6.14303 63.5683 10.2918 68.0598 15.4238 71.1986C20.5557 74.3375 26.4684 76 32.5 76C38.5316 76 44.4443 74.3375 49.5762 71.1986C54.7082 68.0598 58.857 63.5683 61.5583 58.2269C64.2596 52.8856 65.407 46.905 64.8718 40.9546C64.3367 35.0041 62.1402 29.3186 58.5283 24.5342L61.4442 21.6766C62.1435 20.9919 62.5442 20.0631 62.5601 19.0893C62.5761 18.1154 62.2062 17.1742 61.5296 16.4674C60.7734 15.6788 59.9846 14.9213 59.1655 14.1969C58.4519 13.567 57.5229 13.2299 56.5674 13.2544C55.6119 13.2789 54.7017 13.6632 54.0219 14.3288L50.963 17.3212C46.324 14.1511 40.9323 12.2306 35.3174 11.7478V5.66467H40.0114C40.76 5.64985 41.4728 5.34486 41.9969 4.8153C42.521 4.28575 42.8145 3.57377 42.8145 2.83224C42.8145 2.09071 42.521 1.37873 41.9969 0.849173C41.4728 0.319618 40.76 0.014822 40.0114 0H24.9854ZM31.856 17.0783C35.4485 16.9932 39.0217 17.6228 42.364 18.9301C45.7063 20.2373 48.7499 22.1956 51.3144 24.6888C53.879 27.1819 55.9124 30.1592 57.2942 33.4447C58.6761 36.7302 59.3783 40.257 59.3593 43.8161C59.3765 47.3207 58.6944 50.7941 57.3522 54.0369C56.01 57.2796 54.0341 60.2277 51.5381 62.7119C49.0421 65.1961 46.0752 67.1674 42.8077 68.5125C39.5402 69.8576 36.0366 70.5501 32.4982 70.5501C28.9597 70.5501 25.4561 69.8576 22.1886 68.5125C18.9211 67.1674 15.9542 65.1961 13.4582 62.7119C10.9622 60.2277 8.98634 57.2796 7.64414 54.0369C6.30194 50.7941 5.61983 47.3207 5.637 43.8161C5.59983 36.846 8.32592 30.1398 13.229 25.1397C18.1321 20.1396 24.8205 17.2449 31.856 17.0783Z" fill="#319D63"/>
</svg>
