<svg width="55" height="71" viewBox="0 0 55 71" fill="none" xmlns="http://www.w3.org/2000/svg">
<path d="M50.0602 64.7514C50.0602 65.5325 49.4625 66.2354 48.6406 66.2354H5.90262C5.08074 66.2354 4.48301 65.5325 4.48301 64.7514V6.17052C4.48301 5.38944 5.08074 4.68647 5.90262 4.68647H32.6512V16.7932C32.6512 20.2299 35.2663 22.9637 38.5539 22.9637H50.0602V37.1793L54.618 32.4147V22.1826C54.618 20.5424 53.9455 18.9802 52.8248 17.8086L37.5825 1.79648C36.4618 0.624863 34.9674 0 33.3984 0H5.90262C2.61509 0 0 2.81188 0 6.17052V64.8295C0 68.1881 2.61509 71 5.90262 71H48.6406C51.9282 71 54.618 68.1881 54.618 64.8295V56.9406L50.0602 61.7052V64.7514ZM37.209 8.0451L46.9221 18.1991H38.5539C37.732 18.1991 37.1342 17.5743 37.1342 16.7151V8.0451H37.209Z" fill="#319D63"/>
</svg>
