<svg width="24" height="16" viewBox="0 0 24 16" fill="none" xmlns="http://www.w3.org/2000/svg">
<path d="M15.5289 14.4H22.0569C22.3982 14.4 22.3111 14.4951 22.3111 13.8275C22.3111 12.1795 19.9591 11.1955 17.1378 11.1955C16.3591 11.1955 15.6169 11.2702 14.9493 11.4133C14.6536 10.8905 14.2685 10.4236 13.8115 10.0338C14.8071 9.73865 15.9467 9.59553 17.1378 9.59553C20.7582 9.59553 23.9111 10.9155 23.9111 13.8266C23.9111 15.3466 23.3164 16 22.0569 16H15.072C15.3155 15.5511 15.4711 15.0142 15.5289 14.4ZM19.5733 4.21153C19.5733 2.81242 18.4791 1.68887 17.1378 1.68887C15.7964 1.68887 14.7022 2.81242 14.7022 4.21065C14.7022 5.60976 15.7964 6.73331 17.1378 6.73331C18.4791 6.73331 19.5733 5.60976 19.5733 4.21153ZM21.1733 4.21153C21.1733 6.48353 19.3724 8.33331 17.1378 8.33331C14.9031 8.33331 13.1022 6.48442 13.1022 4.21065C13.1022 1.93865 14.9031 0.0888672 17.1378 0.0888672C19.3724 0.0888672 21.1733 1.93776 21.1733 4.21153ZM9.61776 4.21153C9.61776 2.81242 8.52354 1.68887 7.18221 1.68887C5.84087 1.68887 4.74665 2.81242 4.74665 4.21065C4.74665 5.60976 5.84087 6.73331 7.18221 6.73331C8.52354 6.73331 9.61776 5.60976 9.61776 4.21153ZM11.2178 4.21153C11.2178 6.48353 9.41687 8.33331 7.18221 8.33331C4.94754 8.33331 3.14665 6.48442 3.14665 4.21065C3.14665 1.93953 4.94754 0.0888672 7.18221 0.0888672C9.41687 0.0888672 11.2178 1.93776 11.2178 4.21153ZM2.00887 13.8275C2.00887 14.4951 1.92176 14.4 2.2631 14.4H12.1013C12.4427 14.4 12.3555 14.4951 12.3555 13.8275C12.3555 12.1795 10.0035 11.1955 7.18221 11.1955C4.36087 11.1955 2.00887 12.1795 2.00887 13.8266V13.8275ZM0.408875 13.8275C0.408875 10.9155 3.56176 9.59553 7.18221 9.59553C10.8027 9.59553 13.9555 10.9155 13.9555 13.8266C13.9555 15.3466 13.3609 16 12.1013 16H2.2631C1.00354 16 0.408875 15.3466 0.408875 13.8275Z" fill="#319D63"/>
</svg>
