<svg width="74" height="63" viewBox="0 0 74 63" fill="none" xmlns="http://www.w3.org/2000/svg">
<path d="M72.3428 7.76303H67.9017V1.66768C67.9017 1.22538 67.7271 0.8012 67.4163 0.48845C67.1055 0.175701 66.684 0 66.2445 0H43.3096C42.0863 0.0110601 40.883 0.313825 39.7984 0.883458C38.7139 1.45309 37.779 2.27336 37.0704 3.27698C36.3628 2.27238 35.4281 1.45138 34.3434 0.881639C33.2586 0.311893 32.0548 0.00971288 30.8313 0H7.89632C7.45681 0 7.03531 0.175701 6.72453 0.48845C6.41376 0.8012 6.23917 1.22538 6.23917 1.66768V7.76303H1.65715C1.21765 7.76303 0.796143 7.93873 0.485368 8.25148C0.174592 8.56423 0 8.98841 0 9.43071V56.259C0 56.7013 0.174592 57.1255 0.485368 57.4383C0.796143 57.751 1.21765 57.9267 1.65715 57.9267H28.8261C29.5746 59.4856 30.755 60.7935 32.225 61.693C33.695 62.5925 35.3921 63.0451 37.1119 62.9964C38.8145 63.0076 40.4861 62.5386 41.9374 61.6425C43.3887 60.7465 44.5615 59.4592 45.323 57.9267H72.3428C72.7824 57.9267 73.2039 57.751 73.5146 57.4383C73.8254 57.1255 74 56.7013 74 56.259V9.43071C74 8.98841 73.8254 8.56423 73.5146 8.25148C73.2039 7.93873 72.7824 7.76303 72.3428 7.76303ZM30.8313 3.33535C32.1062 3.4023 33.3032 3.97359 34.1615 4.92476C35.0197 5.87592 35.4697 7.12988 35.4133 8.41342V49.5383C34.0232 48.9167 32.5181 48.5984 30.997 48.6044H9.55347V3.33535H30.8313ZM43.3096 3.33535H64.5874V48.6044H43.1439C41.6228 48.5984 40.1176 48.9167 38.7276 49.5383V8.41342C38.6712 7.12988 39.1211 5.87592 39.9794 4.92476C40.8376 3.97359 42.0346 3.4023 43.3096 3.33535ZM70.6526 54.5914H44.1382C43.7962 54.6026 43.4661 54.72 43.1932 54.9275C42.9202 55.135 42.7178 55.4225 42.6136 55.7504C42.2026 56.8983 41.4498 57.8906 40.4578 58.5919C39.4657 59.2933 38.2828 59.6696 37.0704 59.6694C35.8584 59.7297 34.6604 59.3856 33.6626 58.6905C32.6648 57.9954 31.9229 56.9883 31.5521 55.8254C31.4559 55.473 31.2472 55.1622 30.9583 54.9407C30.6694 54.7192 30.3162 54.5994 29.953 54.5997H3.3143V11.0984H6.23917V50.2888C6.23917 50.7311 6.41376 51.1552 6.72453 51.468C7.03531 51.7807 7.45681 51.9564 7.89632 51.9564H30.997C32.7927 51.9193 34.535 52.5723 35.869 53.7825L35.985 53.8826L36.0679 53.9576C36.1844 54.0472 36.3127 54.1201 36.449 54.1744L36.623 54.2328H36.739C36.8436 54.2456 36.9493 54.2456 37.0539 54.2328C37.1612 54.2451 37.2696 54.2451 37.377 54.2328H37.493C37.5496 54.2211 37.6051 54.2044 37.6587 54.1828C37.7968 54.1321 37.9255 54.0589 38.0399 53.966L38.1227 53.8909C38.1227 53.8909 38.2139 53.8242 38.247 53.7825C39.5837 52.5831 41.3201 51.9341 43.1107 51.9648H66.2445C66.684 51.9648 67.1055 51.7891 67.4163 51.4763C67.7271 51.1636 67.9017 50.7394 67.9017 50.2971V11.1067H70.6857L70.6526 54.5914Z" fill="#319D63"/>
<path d="M30.218 13.0327H14.79C14.5723 13.0327 14.3569 13.0759 14.1558 13.1597C13.9547 13.2435 13.7721 13.3663 13.6182 13.5212C13.4643 13.676 13.3422 13.8599 13.259 14.0622C13.1757 14.2645 13.1328 14.4814 13.1328 14.7004C13.1328 14.9194 13.1757 15.1362 13.259 15.3386C13.3422 15.5409 13.4643 15.7248 13.6182 15.8796C13.7721 16.0345 13.9547 16.1573 14.1558 16.2411C14.3569 16.3249 14.5723 16.3681 14.79 16.3681H30.218C30.6575 16.3681 31.079 16.1924 31.3898 15.8796C31.7006 15.5669 31.8752 15.1427 31.8752 14.7004C31.8752 14.2581 31.7006 13.8339 31.3898 13.5212C31.079 13.2084 30.6575 13.0327 30.218 13.0327Z" fill="#319D63"/>
<path d="M30.218 24.5315H14.79C14.3505 24.5315 13.929 24.7072 13.6182 25.0199C13.3074 25.3327 13.1328 25.7569 13.1328 26.1992C13.1328 26.6415 13.3074 27.0656 13.6182 27.3784C13.929 27.6911 14.3505 27.8668 14.79 27.8668H30.218C30.6575 27.8668 31.079 27.6911 31.3898 27.3784C31.7006 27.0656 31.8752 26.6415 31.8752 26.1992C31.8752 25.7569 31.7006 25.3327 31.3898 25.0199C31.079 24.7072 30.6575 24.5315 30.218 24.5315Z" fill="#319D63"/>
<path d="M30.218 36.03H14.79C14.3505 36.03 13.929 36.2057 13.6182 36.5185C13.3074 36.8312 13.1328 37.2554 13.1328 37.6977C13.1328 38.14 13.3074 38.5642 13.6182 38.8769C13.929 39.1897 14.3505 39.3654 14.79 39.3654H30.218C30.6575 39.3654 31.079 39.1897 31.3898 38.8769C31.7006 38.5642 31.8752 38.14 31.8752 37.6977C31.8752 37.2554 31.7006 36.8312 31.3898 36.5185C31.079 36.2057 30.6575 36.03 30.218 36.03Z" fill="#319D63"/>
<path d="M59.3923 13.0327H43.9228C43.7052 13.0327 43.4897 13.0759 43.2886 13.1597C43.0876 13.2435 42.9049 13.3663 42.751 13.5212C42.5971 13.676 42.475 13.8599 42.3918 14.0622C42.3085 14.2645 42.2656 14.4814 42.2656 14.7004C42.2656 14.9194 42.3085 15.1362 42.3918 15.3386C42.475 15.5409 42.5971 15.7248 42.751 15.8796C42.9049 16.0345 43.0876 16.1573 43.2886 16.2411C43.4897 16.3249 43.7052 16.3681 43.9228 16.3681H59.3923C59.8318 16.3681 60.2533 16.1924 60.564 15.8796C60.8748 15.5669 61.0494 15.1427 61.0494 14.7004C61.0494 14.2581 60.8748 13.8339 60.564 13.5212C60.2533 13.2084 59.8318 13.0327 59.3923 13.0327Z" fill="#319D63"/>
<path d="M59.3923 24.5315H43.9228C43.4833 24.5315 43.0618 24.7072 42.751 25.0199C42.4402 25.3327 42.2656 25.7569 42.2656 26.1992C42.2656 26.6415 42.4402 27.0656 42.751 27.3784C43.0618 27.6911 43.4833 27.8668 43.9228 27.8668H59.3923C59.8318 27.8668 60.2533 27.6911 60.564 27.3784C60.8748 27.0656 61.0494 26.6415 61.0494 26.1992C61.0494 25.7569 60.8748 25.3327 60.564 25.0199C60.2533 24.7072 59.8318 24.5315 59.3923 24.5315Z" fill="#319D63"/>
<path d="M59.3923 36.03H43.9228C43.4833 36.03 43.0618 36.2057 42.751 36.5185C42.4402 36.8312 42.2656 37.2554 42.2656 37.6977C42.2656 38.14 42.4402 38.5642 42.751 38.8769C43.0618 39.1897 43.4833 39.3654 43.9228 39.3654H59.3923C59.8318 39.3654 60.2533 39.1897 60.564 38.8769C60.8748 38.5642 61.0494 38.14 61.0494 37.6977C61.0494 37.2554 60.8748 36.8312 60.564 36.5185C60.2533 36.2057 59.8318 36.03 59.3923 36.03Z" fill="#319D63"/>
</svg>
