<svg width="71" height="71" viewBox="0 0 71 71" fill="none" xmlns="http://www.w3.org/2000/svg">
<path d="M41.4671 44.5996C41.4671 43.2717 40.421 42.2563 39.2256 42.2563H15.3909C14.1207 42.2563 13.1494 43.3499 13.1494 44.5996C13.1494 45.9274 14.1954 46.9428 15.3909 46.9428H39.2256C40.421 46.9428 41.4671 45.9274 41.4671 44.5996Z" fill="#319D63"/>
<path d="M15.3909 34.9921H39.2256C40.4958 34.9921 41.4671 33.8986 41.4671 32.6489C41.4671 31.3211 40.421 30.3057 39.2256 30.3057H15.3909C14.1207 30.3057 13.1494 31.3992 13.1494 32.6489C13.1494 33.8986 14.1954 34.9921 15.3909 34.9921Z" fill="#319D63"/>
<path d="M13.1494 56.6281C13.1494 57.956 14.1954 58.9714 15.3909 58.9714H34.8173L35.8633 54.2068H15.3909C14.1207 54.2068 13.1494 55.3003 13.1494 56.6281Z" fill="#319D63"/>
<path d="M50.0602 64.7514C50.0602 65.5325 49.4625 66.2354 48.6406 66.2354H5.90262C5.08074 66.2354 4.48301 65.5325 4.48301 64.7514V6.17052C4.48301 5.38944 5.08074 4.68647 5.90262 4.68647H32.6512V16.7932C32.6512 20.2299 35.2663 22.9637 38.5539 22.9637H50.0602V37.1793L54.618 32.4147V22.1826C54.618 20.5424 53.9455 18.9802 52.8248 17.8086L37.5825 1.79648C36.4618 0.624863 34.9674 0 33.3984 0H5.90262C2.61509 0 0 2.81188 0 6.17052V64.8295C0 68.1881 2.61509 71 5.90262 71H48.6406C51.9282 71 54.618 68.1881 54.618 64.8295V56.9406L50.0602 61.7052V64.7514ZM37.209 8.0451L46.9221 18.1991H38.5539C37.732 18.1991 37.1342 17.5743 37.1342 16.7151V8.0451H37.209Z" fill="#319D63"/>
<path d="M40.1229 61.5488L45.876 60.221C46.1002 60.1429 46.3243 59.9866 46.5485 59.8304L48.1923 58.1121L41.8413 51.4729L40.1976 53.1913C39.9734 53.4256 39.824 53.6599 39.824 53.8942L38.4791 59.9085C38.2549 60.8458 39.1515 61.7831 40.1229 61.5488Z" fill="#319D63"/>
<path d="M44.2324 48.9734L50.5833 55.6126L65.3026 40.2253L58.9516 33.5081L44.2324 48.9734Z" fill="#319D63"/>
<path d="M70.6081 32.6488L66.1251 27.9623C65.6021 27.4156 64.7802 27.4156 64.2572 27.9623L61.418 30.9304L67.7689 37.5696L70.6081 34.6796C71.1312 34.1328 71.1312 33.1955 70.6081 32.6488Z" fill="#319D63"/>
</svg>
