<svg width="26" height="26" viewBox="0 0 26 26" fill="none" xmlns="http://www.w3.org/2000/svg">
<path d="M13.7382 5.57129C14.7736 5.57129 15.1487 5.679 15.5267 5.88143C15.9046 6.08386 16.2017 6.381 16.4042 6.75893C16.5927 7.11179 16.6995 7.46279 16.7125 8.34865L16.7143 8.82129H17.98C18.9392 8.82129 19.3264 8.929 19.7052 9.13143C20.0832 9.33386 20.3803 9.631 20.5827 10.0089C20.7852 10.3869 20.8929 10.775 20.8929 11.7342V13.4056C20.8929 14.2321 20.8065 14.5329 20.645 14.8356C20.4907 15.1265 20.2547 15.366 19.9662 15.5246L19.9643 16.9463C19.9644 17.7171 19.6694 18.4588 19.1401 19.0191C18.6107 19.5794 17.8869 19.9159 17.1173 19.9595L16.9465 19.9641H9.05361C8.28276 19.9642 7.54112 19.6693 6.98082 19.1399C6.42052 18.6105 6.08403 17.8868 6.04039 17.1171L6.03575 16.9463V15.5237L5.91132 15.4504C5.6776 15.295 5.48641 15.0837 5.35511 14.8356C5.20653 14.5561 5.12111 14.2785 5.10903 13.5867L5.10718 11.7342C5.10718 10.775 5.21489 10.3878 5.41732 10.0089C5.61975 9.631 5.91689 9.33386 6.29482 9.13143C6.64582 8.94386 7.00518 8.83707 7.82232 8.82315L9.28575 8.82129V8.54643C9.28575 7.51107 9.39346 7.13593 9.59589 6.758C9.79832 6.38007 10.0955 6.08293 10.4734 5.8805C10.8262 5.692 11.1772 5.58522 12.0631 5.57222L13.7382 5.57129ZM18.5733 15.7856L7.42861 15.7846V16.9463C7.42862 17.3541 7.58198 17.747 7.85824 18.047C8.1345 18.347 8.51346 18.5322 8.91989 18.5657L9.05361 18.5713H16.9465C17.3543 18.5713 17.7472 18.4179 18.0472 18.1417C18.3472 17.8654 18.5323 17.4864 18.5659 17.08L18.5715 16.9463L18.5733 15.7856ZM18.1378 10.2141H7.86225L7.57532 10.2234C7.24382 10.2401 7.09618 10.2819 6.95132 10.3599C6.82001 10.428 6.71298 10.5351 6.64489 10.6664C6.54832 10.8465 6.50746 11.0313 6.50096 11.5764V13.5431L6.50561 13.7631C6.51303 13.9489 6.52789 14.0436 6.55389 14.1132L6.58361 14.1782C6.6119 14.2346 6.65744 14.2805 6.71361 14.3091L6.77861 14.3389C6.88446 14.3779 7.04232 14.3927 7.48803 14.3927H18.512C18.9577 14.3927 19.1156 14.3779 19.2205 14.3389L19.2855 14.3091C19.3419 14.2809 19.3878 14.2353 19.4165 14.1791L19.4462 14.1141C19.4852 14.0083 19.5 13.8504 19.5 13.4047V11.7333C19.5 11.0647 19.4601 10.8632 19.3542 10.6654C19.2862 10.5341 19.1791 10.4271 19.0478 10.359C18.8677 10.2624 18.6829 10.2216 18.1378 10.2151V10.2141ZM13.898 6.96415H12.1021L11.8068 6.97157C11.5078 6.98457 11.3518 7.01336 11.2246 7.06443L11.1299 7.10993C10.9986 7.17802 10.8915 7.28505 10.8235 7.41636L10.7789 7.50922C10.713 7.67357 10.6842 7.88436 10.6795 8.38765L10.6786 8.82129H15.3215V8.38765L15.314 8.09236C15.301 7.79336 15.2722 7.63736 15.2212 7.51015L15.1757 7.41543C15.1076 7.28412 15.0006 7.17709 14.8692 7.109L14.7764 7.06443C14.612 6.9985 14.4012 6.96972 13.898 6.96507V6.96415Z" fill="#319D63"/>
</svg>
