<svg width="26" height="27" viewBox="0 0 26 27" fill="none" xmlns="http://www.w3.org/2000/svg">
<path d="M12.7869 4.75196L12.6439 4.77289L12.5558 4.79021C12.3535 4.83352 12.1636 4.9057 11.8249 5.05945L5.6282 7.87448C5.24686 8.04772 5.05547 8.16609 4.86625 8.35088C4.67847 8.53349 4.54053 8.74787 4.4517 8.99328C4.37297 9.21199 4.3412 9.40976 4.3347 9.73602L4.33325 17.3547C4.33325 17.7726 4.36214 17.9956 4.4517 18.2446C4.54053 18.4901 4.6792 18.7052 4.86625 18.8871C5.05547 19.0726 5.24686 19.1909 5.62747 19.3634L11.9614 22.2398C12.2604 22.3712 12.4351 22.4289 12.6439 22.4658C12.8822 22.5091 13.1169 22.5091 13.356 22.4658C13.5654 22.4289 13.7388 22.3719 14.0385 22.2398L20.3724 19.3642C20.753 19.1909 20.9444 19.0726 21.1336 18.8878C21.3214 18.7052 21.4593 18.4908 21.5481 18.2454C21.6377 17.9956 21.6666 17.7726 21.6666 17.3547L21.6651 9.73602C21.6579 9.40976 21.6269 9.21199 21.5481 8.994C21.461 8.75098 21.3191 8.53121 21.1336 8.3516C20.9444 8.16609 20.753 8.04772 20.3724 7.87521L14.0385 4.99882C13.7395 4.86745 13.5647 4.8097 13.356 4.77289C13.1683 4.73858 12.9766 4.73153 12.7869 4.75196ZM20.2221 10.0486L20.2207 17.5005C20.2185 17.6015 20.2135 17.6593 20.2048 17.7019L20.1889 17.7553C20.1761 17.7929 20.1543 17.8268 20.1254 17.8542L20.0835 17.8902L20.0322 17.9234C19.9715 17.9575 19.9093 17.9888 19.8459 18.0173L13.7221 20.7984V12.9921L13.8962 12.9221L20.2221 10.0486ZM5.77914 10.0486L8.3062 11.1969L8.30547 13.2584C8.3055 13.4352 8.37044 13.6059 8.48799 13.738C8.60554 13.8701 8.76751 13.9545 8.9432 13.9752L9.0277 13.9802C9.20459 13.9802 9.37533 13.9153 9.50752 13.7978C9.63971 13.6803 9.72417 13.5185 9.74486 13.3429L9.74992 13.2584L9.75064 11.8531L12.1036 12.9221C12.1607 12.948 12.2185 12.9711 12.277 12.9921L12.2777 20.7991L6.22547 18.049C6.0442 17.9675 5.96547 17.9263 5.91636 17.8902L5.87447 17.8542C5.84556 17.8268 5.82375 17.7929 5.81092 17.7553L5.79503 17.7019L5.78636 17.6412C5.779 17.5459 5.77611 17.4503 5.7777 17.3547L5.77914 10.0486ZM16.9721 7.91563L19.1995 8.9276L13.2989 11.6077C13.137 11.6812 12.9537 11.6926 12.784 11.6394L12.7009 11.6077L10.7733 10.7321L16.9721 7.91563ZM13.101 6.1934L13.1675 6.20784L13.2455 6.2331C13.3184 6.25909 13.4181 6.30095 13.5777 6.37385L15.2273 7.12236L9.0277 9.93885L6.80108 8.9276L12.4229 6.37385C12.646 6.2728 12.7508 6.23021 12.8324 6.20784L12.8988 6.1934C12.9656 6.18075 13.0342 6.18075 13.101 6.1934Z" fill="#319D63"/>
</svg>
